<svg width="35" height="35" viewBox="0 0 35 35" fill="none" xmlns="http://www.w3.org/2000/svg">
<g clip-path="url(#clip0_617_2)">
<path d="M13.125 1.64062C13.125 0.734863 13.8564 0 14.7656 0H20.2344C21.1436 0 21.875 0.734863 21.875 1.64062C21.875 2.54639 21.1436 3.28125 20.2344 3.28125H19.1406V5.57949C21.2393 5.86523 23.1602 6.69102 24.7666 7.90918L26.3936 6.28564L25.6211 5.5125C24.9785 4.87129 24.9785 3.83291 25.6211 3.19238C26.2637 2.55117 27.3027 2.55117 27.9385 3.19238L31.8076 7.06152C32.4502 7.69727 32.4502 8.73633 31.8076 9.37891C31.165 10.0215 30.126 10.0215 29.4902 9.37891L28.7109 8.60645L27.0908 10.2334C28.3076 11.8398 29.1348 13.7607 29.4219 15.8594H31.7188V14.7656C31.7188 13.8564 32.4502 13.125 33.3594 13.125C34.2686 13.125 35 13.8564 35 14.7656V20.2344C35 21.1436 34.2686 21.875 33.3594 21.875C32.4502 21.875 31.7188 21.1436 31.7188 20.2344V19.1406H29.4219C29.1348 21.2393 28.3076 23.1602 27.0908 24.7666L28.7109 26.3936L29.4902 25.6211C30.126 24.9785 31.165 24.9785 31.8076 25.6211C32.4502 26.2637 32.4502 27.3027 31.8076 27.9385L27.9385 31.8076C27.3027 32.4502 26.2637 32.4502 25.6211 31.8076C24.9785 31.165 24.9785 30.126 25.6211 29.4902L26.3936 28.7109L24.7666 27.0908C23.1602 28.3076 21.2393 29.1348 19.1406 29.4219V31.7188H20.2344C21.1436 31.7188 21.875 32.4502 21.875 33.3594C21.875 34.2686 21.1436 35 20.2344 35H14.7656C13.8564 35 13.125 34.2686 13.125 33.3594C13.125 32.4502 13.8564 31.7188 14.7656 31.7188H15.8594V29.4219C13.7607 29.1348 11.8398 28.3076 10.2334 27.0908L8.60645 28.7178L9.37891 29.4902C10.0215 30.126 10.0215 31.165 9.37891 31.8076C8.73633 32.4502 7.69727 32.4502 7.06152 31.8076L3.19238 27.9385C2.55117 27.3027 2.55117 26.2637 3.19238 25.6211C3.83291 24.9785 4.87197 24.9785 5.5125 25.6211L6.28564 26.3936L7.90918 24.7666C6.69102 23.1602 5.86523 21.2393 5.57949 19.1406H3.28125V20.2344C3.28125 21.1436 2.54639 21.875 1.64062 21.875C0.734863 21.875 0 21.1436 0 20.2344V14.7656C0 13.8564 0.734863 13.125 1.64062 13.125C2.54639 13.125 3.28125 13.8564 3.28125 14.7656V15.8594H5.57949C5.86523 13.7607 6.69102 11.8398 7.90918 10.2334L6.28564 8.60645L5.5125 9.37891C4.87129 10.0215 3.83291 10.0215 3.19238 9.37891C2.55117 8.73633 2.55117 7.69727 3.19238 7.06152L7.06152 3.19238C7.69727 2.55186 8.73633 2.55186 9.37891 3.19238C10.0215 3.83291 10.0215 4.87197 9.37891 5.5125L8.60645 6.28564L10.2334 7.90918C11.8398 6.69102 13.7607 5.86523 15.8594 5.57949V3.28125H14.7656C13.8564 3.28125 13.125 2.54707 13.125 1.64062ZM13.125 12.0312C11.3135 12.0312 9.84375 13.501 9.84375 15.3125C9.84375 17.124 11.3135 18.5938 13.125 18.5938C14.9365 18.5938 16.4062 17.124 16.4062 15.3125C16.4062 13.501 14.9365 12.0312 13.125 12.0312ZM20.7812 22.4219C21.6904 22.4219 22.4219 21.6904 22.4219 20.7812C22.4219 19.8721 21.6904 19.1406 20.7812 19.1406C19.8721 19.1406 19.1406 19.8721 19.1406 20.7812C19.1406 21.6904 19.8721 22.4219 20.7812 22.4219Z" fill="black"/>
</g>
<defs>
<clipPath id="clip0_617_2">
<rect width="35" height="35" fill="white"/>
</clipPath>
</defs>
</svg>
